<mxfile host="app.diagrams.net" agent="Mozilla/5.0 (Windows NT 10.0; Win64; x64; rv:137.0) Gecko/20100101 Firefox/137.0" version="26.1.1">
  <diagram name="Página-1" id="AiskDo8snz670i-G4ISs">
    <mxGraphModel dx="1005" dy="1105" grid="1" gridSize="10" guides="1" tooltips="1" connect="1" arrows="1" fold="1" page="1" pageScale="1" pageWidth="827" pageHeight="1169" math="0" shadow="0">
      <root>
        <mxCell id="0" />
        <mxCell id="1" parent="0" />
        <mxCell id="yUqG6FH9V8UZ_ctYaShu-2" value="" style="rounded=0;whiteSpace=wrap;html=1;" parent="1" vertex="1">
          <mxGeometry x="230" y="170" width="350" height="440" as="geometry" />
        </mxCell>
        <mxCell id="yUqG6FH9V8UZ_ctYaShu-3" value="&lt;div&gt;Submeter pedido&lt;/div&gt;&lt;div&gt;de serviço&lt;/div&gt;" style="ellipse;whiteSpace=wrap;html=1;" parent="1" vertex="1">
          <mxGeometry x="260" y="190" width="120" height="80" as="geometry" />
        </mxCell>
        <mxCell id="yUqG6FH9V8UZ_ctYaShu-4" value="Aprovar orçamento" style="ellipse;whiteSpace=wrap;html=1;" parent="1" vertex="1">
          <mxGeometry x="280" y="280" width="120" height="80" as="geometry" />
        </mxCell>
        <mxCell id="yUqG6FH9V8UZ_ctYaShu-5" value="Postar orçamento" style="ellipse;whiteSpace=wrap;html=1;" parent="1" vertex="1">
          <mxGeometry x="420" y="200" width="120" height="80" as="geometry" />
        </mxCell>
        <mxCell id="yUqG6FH9V8UZ_ctYaShu-8" value="Confirmar&lt;br&gt;finalização&lt;br&gt;do serviço" style="ellipse;whiteSpace=wrap;html=1;" parent="1" vertex="1">
          <mxGeometry x="440" y="390" width="120" height="80" as="geometry" />
        </mxCell>
        <mxCell id="yUqG6FH9V8UZ_ctYaShu-9" value="Avaliação do&lt;br&gt;serviço" style="ellipse;whiteSpace=wrap;html=1;" parent="1" vertex="1">
          <mxGeometry x="310" y="470" width="120" height="80" as="geometry" />
        </mxCell>
        <mxCell id="yUqG6FH9V8UZ_ctYaShu-10" value="Contratante" style="shape=umlActor;verticalLabelPosition=bottom;verticalAlign=top;html=1;outlineConnect=0;" parent="1" vertex="1">
          <mxGeometry x="130" y="260" width="30" height="60" as="geometry" />
        </mxCell>
        <mxCell id="yUqG6FH9V8UZ_ctYaShu-11" value="Profissional" style="shape=umlActor;verticalLabelPosition=bottom;verticalAlign=top;html=1;outlineConnect=0;" parent="1" vertex="1">
          <mxGeometry x="640" y="260" width="30" height="60" as="geometry" />
        </mxCell>
        <mxCell id="yUqG6FH9V8UZ_ctYaShu-13" value="Instituição&lt;div&gt;financeira&lt;/div&gt;" style="shape=umlActor;verticalLabelPosition=bottom;verticalAlign=top;html=1;outlineConnect=0;" parent="1" vertex="1">
          <mxGeometry x="640" y="520" width="30" height="60" as="geometry" />
        </mxCell>
        <mxCell id="yUqG6FH9V8UZ_ctYaShu-14" value="" style="endArrow=none;html=1;rounded=0;entryX=0;entryY=0.5;entryDx=0;entryDy=0;" parent="1" target="yUqG6FH9V8UZ_ctYaShu-3" edge="1">
          <mxGeometry width="50" height="50" relative="1" as="geometry">
            <mxPoint x="180" y="310" as="sourcePoint" />
            <mxPoint x="320" y="410" as="targetPoint" />
          </mxGeometry>
        </mxCell>
        <mxCell id="yUqG6FH9V8UZ_ctYaShu-15" value="" style="endArrow=none;html=1;rounded=0;" parent="1" target="yUqG6FH9V8UZ_ctYaShu-4" edge="1">
          <mxGeometry width="50" height="50" relative="1" as="geometry">
            <mxPoint x="180" y="310" as="sourcePoint" />
            <mxPoint x="320" y="410" as="targetPoint" />
          </mxGeometry>
        </mxCell>
        <mxCell id="yUqG6FH9V8UZ_ctYaShu-16" value="" style="endArrow=none;html=1;rounded=0;exitX=0;exitY=0.5;exitDx=0;exitDy=0;" parent="1" source="yUqG6FH9V8UZ_ctYaShu-8" edge="1">
          <mxGeometry width="50" height="50" relative="1" as="geometry">
            <mxPoint x="270" y="460" as="sourcePoint" />
            <mxPoint x="180" y="310" as="targetPoint" />
          </mxGeometry>
        </mxCell>
        <mxCell id="yUqG6FH9V8UZ_ctYaShu-17" value="" style="endArrow=none;html=1;rounded=0;exitX=0;exitY=0.5;exitDx=0;exitDy=0;" parent="1" source="yUqG6FH9V8UZ_ctYaShu-9" edge="1">
          <mxGeometry width="50" height="50" relative="1" as="geometry">
            <mxPoint x="270" y="460" as="sourcePoint" />
            <mxPoint x="180" y="310" as="targetPoint" />
          </mxGeometry>
        </mxCell>
        <mxCell id="yUqG6FH9V8UZ_ctYaShu-18" value="" style="endArrow=none;html=1;rounded=0;exitX=1;exitY=0.5;exitDx=0;exitDy=0;" parent="1" source="yUqG6FH9V8UZ_ctYaShu-5" edge="1">
          <mxGeometry width="50" height="50" relative="1" as="geometry">
            <mxPoint x="270" y="460" as="sourcePoint" />
            <mxPoint x="630" y="310" as="targetPoint" />
          </mxGeometry>
        </mxCell>
        <mxCell id="yUqG6FH9V8UZ_ctYaShu-19" value="" style="endArrow=none;html=1;rounded=0;exitX=1;exitY=0.5;exitDx=0;exitDy=0;" parent="1" source="yUqG6FH9V8UZ_ctYaShu-4" edge="1">
          <mxGeometry width="50" height="50" relative="1" as="geometry">
            <mxPoint x="270" y="460" as="sourcePoint" />
            <mxPoint x="630" y="310" as="targetPoint" />
          </mxGeometry>
        </mxCell>
        <mxCell id="yUqG6FH9V8UZ_ctYaShu-21" value="" style="endArrow=none;html=1;rounded=0;" parent="1" source="yUqG6FH9V8UZ_ctYaShu-8" edge="1">
          <mxGeometry width="50" height="50" relative="1" as="geometry">
            <mxPoint x="270" y="460" as="sourcePoint" />
            <mxPoint x="620" y="550" as="targetPoint" />
          </mxGeometry>
        </mxCell>
        <mxCell id="Fx0SNQ5xL3IWgHlJ-hTe-6" value="" style="endArrow=none;html=1;rounded=0;exitX=1;exitY=0.5;exitDx=0;exitDy=0;" edge="1" parent="1">
          <mxGeometry width="50" height="50" relative="1" as="geometry">
            <mxPoint x="540" y="400" as="sourcePoint" />
            <mxPoint x="630" y="310" as="targetPoint" />
          </mxGeometry>
        </mxCell>
      </root>
    </mxGraphModel>
  </diagram>
</mxfile>
